<svg xmlns="http://www.w3.org/2000/svg" xmlns:xlink="http://www.w3.org/1999/xlink" width="40" zoomAndPan="magnify" viewBox="0 0 30 30.000001" height="40" preserveAspectRatio="xMidYMid meet" version="1.0"><defs><clipPath id="8aeddde25f"><path d="M 0.484375 0 L 29.515625 0 L 29.515625 29.03125 L 0.484375 29.03125 Z M 0.484375 0 " clip-rule="nonzero"/></clipPath><clipPath id="cf6c925886"><path d="M 4.582031 25 L 5 25 L 5 27 L 4.582031 27 Z M 4.582031 25 " clip-rule="nonzero"/></clipPath><clipPath id="0cc4cc4eb2"><path d="M 4.582031 1.453125 L 25.628906 1.453125 L 25.628906 21 L 4.582031 21 Z M 4.582031 1.453125 " clip-rule="nonzero"/></clipPath><clipPath id="93591daaca"><path d="M 25 25 L 25.628906 25 L 25.628906 27 L 25 27 Z M 25 25 " clip-rule="nonzero"/></clipPath><clipPath id="932afde2be"><path d="M 22 1.453125 L 25.628906 1.453125 L 25.628906 6 L 22 6 Z M 22 1.453125 " clip-rule="nonzero"/></clipPath><clipPath id="f883c8af9b"><path d="M 4.582031 26 L 25.628906 26 L 25.628906 27.582031 L 4.582031 27.582031 Z M 4.582031 26 " clip-rule="nonzero"/></clipPath><clipPath id="e7f3ad48ff"><path d="M 4.582031 20 L 25.628906 20 L 25.628906 27.582031 L 4.582031 27.582031 Z M 4.582031 20 " clip-rule="nonzero"/></clipPath></defs><g clip-path="url(#8aeddde25f)"><path fill="#ffffff" d="M 0.484375 0 L 29.515625 0 L 29.515625 29.03125 L 0.484375 29.03125 Z M 0.484375 0 " fill-opacity="1" fill-rule="nonzero"/><path fill="#ffffff" d="M 0.484375 0 L 29.515625 0 L 29.515625 29.03125 L 0.484375 29.03125 Z M 0.484375 0 " fill-opacity="1" fill-rule="nonzero"/></g><g clip-path="url(#cf6c925886)"><path fill="#e6e6e6" d="M 4.582031 25.722656 C 4.582031 26.0625 4.6875 26.378906 4.867188 26.636719 C 4.683594 26.34375 4.582031 26 4.582031 25.628906 Z M 4.582031 25.722656 " fill-opacity="1" fill-rule="nonzero"/></g><path fill="#e6e6e6" d="M 15.742188 6.894531 C 15.714844 6.449219 15.4375 6.214844 15.257812 6.195312 C 15.253906 6.195312 15.242188 6.195312 15.238281 6.195312 C 15.066406 6.195312 14.976562 6.429688 14.9375 6.574219 C 14.75 7.285156 14.953125 8 15.351562 8.671875 C 15.703125 7.597656 15.753906 7.109375 15.742188 6.894531 Z M 15.742188 6.894531 " fill-opacity="1" fill-rule="nonzero"/><path fill="#e6e6e6" d="M 15.675781 10.648438 C 15.484375 11.125 15.292969 11.574219 15.132812 11.949219 C 15.511719 11.816406 15.761719 11.734375 15.785156 11.726562 L 15.789062 11.722656 C 15.8125 11.714844 16.125 11.621094 16.578125 11.511719 C 16.28125 11.242188 15.972656 10.957031 15.675781 10.648438 Z M 15.675781 10.648438 " fill-opacity="1" fill-rule="nonzero"/><path fill="#e6e6e6" d="M 11.464844 14.859375 C 11.367188 14.960938 11.339844 15.023438 11.332031 15.050781 C 11.339844 15.058594 11.355469 15.074219 11.378906 15.097656 C 11.683594 15.34375 11.882812 15.320312 12.007812 15.285156 C 12.195312 15.226562 12.40625 15.0625 12.621094 14.804688 C 12.820312 14.5625 13.019531 14.242188 13.210938 13.859375 C 13.230469 13.824219 13.246094 13.789062 13.265625 13.753906 C 12.734375 14 12.300781 14.234375 11.972656 14.453125 C 11.75 14.597656 11.578125 14.734375 11.464844 14.859375 Z M 11.464844 14.859375 " fill-opacity="1" fill-rule="nonzero"/><g clip-path="url(#0cc4cc4eb2)"><path fill="#e6e6e6" d="M 22.84375 5.515625 C 22.554688 5.515625 22.28125 5.390625 22.09375 5.175781 C 21.898438 4.953125 21.816406 4.65625 21.863281 4.367188 L 22.355469 1.464844 L 6.214844 1.464844 C 5.3125 1.464844 4.582031 2.191406 4.582031 3.082031 L 4.582031 20.4375 L 25.625 20.4375 L 25.625 5.441406 L 22.867188 5.511719 C 22.859375 5.515625 22.851562 5.515625 22.84375 5.515625 Z M 20.894531 12.464844 C 20.847656 12.699219 20.722656 12.914062 20.519531 13.082031 C 20.265625 13.296875 19.917969 13.414062 19.542969 13.414062 C 19.492188 13.414062 19.441406 13.410156 19.390625 13.410156 C 18.929688 13.371094 18.476562 13.160156 18.085938 12.800781 C 17.929688 12.660156 17.730469 12.492188 17.496094 12.292969 C 16.75 12.445312 16.132812 12.632812 16.085938 12.648438 C 16.03125 12.664062 15.371094 12.882812 14.554688 13.203125 C 14.453125 13.480469 14.300781 13.867188 14.097656 14.273438 C 13.871094 14.726562 13.632812 15.109375 13.382812 15.410156 C 13.042969 15.828125 12.671875 16.097656 12.292969 16.210938 C 12.167969 16.25 12.019531 16.277344 11.855469 16.277344 C 11.539062 16.277344 11.15625 16.175781 10.753906 15.84375 C 10.320312 15.488281 10.320312 15.085938 10.359375 14.875 C 10.40625 14.632812 10.542969 14.402344 10.773438 14.160156 C 10.949219 13.984375 11.175781 13.804688 11.464844 13.613281 C 11.921875 13.316406 12.527344 13.003906 13.277344 12.679688 C 13.464844 12.59375 13.652344 12.515625 13.835938 12.441406 C 13.976562 12.132812 14.398438 11.207031 14.800781 10.171875 C 14.851562 10.046875 14.898438 9.925781 14.945312 9.808594 C 14.527344 9.261719 14.230469 8.722656 14.0625 8.203125 C 13.851562 7.558594 13.824219 6.925781 13.988281 6.324219 C 14.085938 5.957031 14.257812 5.675781 14.503906 5.480469 C 14.746094 5.289062 15.046875 5.203125 15.355469 5.230469 C 15.53125 5.25 15.707031 5.304688 15.875 5.398438 C 16.03125 5.488281 16.171875 5.605469 16.292969 5.75 C 16.414062 5.890625 16.515625 6.058594 16.585938 6.238281 C 16.664062 6.429688 16.707031 6.632812 16.71875 6.84375 C 16.742188 7.234375 16.644531 7.785156 16.421875 8.539062 C 16.324219 8.867188 16.203125 9.230469 16.058594 9.628906 C 16.59375 10.242188 17.222656 10.796875 17.765625 11.261719 C 17.777344 11.257812 17.792969 11.257812 17.804688 11.253906 C 18.429688 11.148438 18.964844 11.109375 19.390625 11.132812 C 19.671875 11.148438 19.90625 11.191406 20.109375 11.261719 C 20.378906 11.363281 20.585938 11.511719 20.722656 11.714844 C 20.882812 11.945312 20.941406 12.207031 20.894531 12.464844 Z M 20.894531 12.464844 " fill-opacity="1" fill-rule="nonzero"/></g><path fill="#e6e6e6" d="M 19.339844 12.09375 C 19.175781 12.085938 18.984375 12.089844 18.769531 12.105469 C 19.28125 12.566406 19.742188 12.464844 19.886719 12.34375 C 19.917969 12.320312 19.925781 12.296875 19.925781 12.292969 C 19.925781 12.289062 19.925781 12.273438 19.90625 12.242188 C 19.886719 12.210938 19.738281 12.117188 19.339844 12.09375 Z M 19.339844 12.09375 " fill-opacity="1" fill-rule="nonzero"/><g clip-path="url(#93591daaca)"><path fill="#e6e6e6" d="M 25.625 25.722656 L 25.625 25.628906 C 25.625 26 25.523438 26.34375 25.339844 26.640625 C 25.519531 26.375 25.625 26.0625 25.625 25.722656 Z M 25.625 25.722656 " fill-opacity="1" fill-rule="nonzero"/></g><g clip-path="url(#932afde2be)"><path fill="#e6e6e6" d="M 24.722656 3.832031 L 24.261719 3.308594 L 22.652344 1.464844 L 22.566406 1.464844 L 22.242188 3.359375 L 22.066406 4.398438 C 21.980469 4.886719 22.367188 5.324219 22.863281 5.3125 L 23.929688 5.285156 L 25.628906 5.242188 L 25.628906 5.019531 Z M 24.722656 3.832031 " fill-opacity="1" fill-rule="nonzero"/></g><g clip-path="url(#f883c8af9b)"><path fill="#f80707" d="M 23.992188 27.34375 L 6.214844 27.34375 C 5.65625 27.34375 5.160156 27.0625 4.867188 26.636719 C 5.207031 27.195312 5.832031 27.566406 6.539062 27.566406 L 23.667969 27.566406 C 24.378906 27.566406 25 27.195312 25.34375 26.636719 C 25.050781 27.0625 24.550781 27.34375 23.992188 27.34375 Z M 23.992188 27.34375 " fill-opacity="1" fill-rule="nonzero"/></g><path fill="#f80707" d="M 16.636719 23.941406 C 16.644531 22.984375 16.082031 22.425781 15.074219 22.425781 C 14.820312 22.425781 14.644531 22.445312 14.523438 22.46875 L 14.523438 25.59375 C 14.636719 25.613281 14.804688 25.613281 14.96875 25.613281 C 16.019531 25.621094 16.636719 25.046875 16.636719 23.941406 Z M 16.636719 23.941406 " fill-opacity="1" fill-rule="nonzero"/><g clip-path="url(#e7f3ad48ff)"><path fill="#f80707" d="M 4.582031 25.628906 C 4.582031 25.996094 4.683594 26.34375 4.867188 26.636719 C 5.160156 27.0625 5.65625 27.34375 6.214844 27.34375 L 23.996094 27.34375 C 24.554688 27.34375 25.050781 27.0625 25.34375 26.636719 C 25.523438 26.34375 25.628906 26 25.628906 25.628906 L 25.628906 20.433594 L 4.582031 20.433594 Z M 18.1875 21.839844 L 20.738281 21.839844 L 20.738281 22.492188 L 18.992188 22.492188 L 18.992188 23.695312 L 20.613281 23.695312 L 20.613281 24.34375 L 18.992188 24.34375 L 18.992188 26.199219 L 18.1875 26.199219 Z M 13.722656 21.894531 C 14.082031 21.84375 14.527344 21.804688 15.003906 21.804688 C 15.828125 21.804688 16.386719 21.972656 16.792969 22.3125 C 17.222656 22.65625 17.488281 23.175781 17.488281 23.914062 C 17.488281 24.699219 17.21875 25.273438 16.800781 25.648438 C 16.363281 26.046875 15.664062 26.246094 14.808594 26.246094 C 14.34375 26.246094 13.992188 26.222656 13.722656 26.1875 Z M 10.070312 21.894531 C 10.363281 21.84375 10.761719 21.804688 11.300781 21.804688 C 11.886719 21.804688 12.3125 21.929688 12.59375 22.160156 C 12.855469 22.375 13.023438 22.714844 13.023438 23.125 C 13.023438 23.539062 12.894531 23.875 12.652344 24.109375 C 12.324219 24.425781 11.828125 24.582031 11.261719 24.582031 C 11.109375 24.582031 10.980469 24.574219 10.867188 24.546875 L 10.867188 26.195312 L 10.070312 26.195312 Z M 10.070312 21.894531 " fill-opacity="1" fill-rule="nonzero"/></g><path fill="#f80707" d="M 12.226562 23.15625 C 12.226562 22.671875 11.886719 22.421875 11.328125 22.421875 C 11.109375 22.421875 10.949219 22.441406 10.867188 22.460938 L 10.867188 23.921875 C 10.972656 23.953125 11.09375 23.960938 11.257812 23.960938 C 11.859375 23.960938 12.226562 23.664062 12.226562 23.15625 Z M 12.226562 23.15625 " fill-opacity="1" fill-rule="nonzero"/><path fill="#ffffff" d="M 10.867188 24.546875 C 10.980469 24.574219 11.109375 24.582031 11.261719 24.582031 C 11.828125 24.582031 12.328125 24.425781 12.652344 24.109375 C 12.894531 23.875 13.023438 23.539062 13.023438 23.125 C 13.023438 22.71875 12.855469 22.375 12.59375 22.160156 C 12.3125 21.925781 11.886719 21.804688 11.300781 21.804688 C 10.761719 21.804688 10.363281 21.84375 10.070312 21.894531 L 10.070312 26.199219 L 10.867188 26.199219 Z M 10.867188 22.460938 C 10.953125 22.441406 11.109375 22.421875 11.332031 22.421875 C 11.886719 22.421875 12.230469 22.675781 12.230469 23.15625 C 12.230469 23.664062 11.863281 23.960938 11.261719 23.960938 C 11.097656 23.960938 10.972656 23.953125 10.871094 23.921875 L 10.871094 22.460938 Z M 10.867188 22.460938 " fill-opacity="1" fill-rule="nonzero"/><path fill="#ffffff" d="M 16.800781 25.648438 C 17.21875 25.273438 17.488281 24.699219 17.488281 23.914062 C 17.488281 23.179688 17.226562 22.65625 16.792969 22.3125 C 16.386719 21.976562 15.828125 21.804688 15.003906 21.804688 C 14.523438 21.804688 14.082031 21.84375 13.722656 21.894531 L 13.722656 26.183594 C 13.992188 26.21875 14.34375 26.242188 14.808594 26.242188 C 15.664062 26.242188 16.367188 26.042969 16.800781 25.648438 Z M 14.527344 22.472656 C 14.644531 22.449219 14.820312 22.429688 15.078125 22.429688 C 16.085938 22.429688 16.644531 22.984375 16.640625 23.945312 C 16.640625 25.050781 16.019531 25.625 14.976562 25.621094 C 14.8125 25.621094 14.640625 25.621094 14.53125 25.601562 L 14.53125 22.472656 Z M 14.527344 22.472656 " fill-opacity="1" fill-rule="nonzero"/><path fill="#ffffff" d="M 18.992188 24.34375 L 20.613281 24.34375 L 20.613281 23.695312 L 18.992188 23.695312 L 18.992188 22.492188 L 20.738281 22.492188 L 20.738281 21.839844 L 18.1875 21.839844 L 18.1875 26.199219 L 18.992188 26.199219 Z M 18.992188 24.34375 " fill-opacity="1" fill-rule="nonzero"/><path fill="#fe0606" d="M 20.117188 11.257812 C 19.914062 11.183594 19.675781 11.140625 19.394531 11.125 C 18.96875 11.101562 18.433594 11.140625 17.808594 11.25 C 17.796875 11.25 17.785156 11.25 17.773438 11.253906 C 17.230469 10.796875 16.597656 10.238281 16.0625 9.625 C 16.207031 9.222656 16.328125 8.859375 16.425781 8.53125 C 16.648438 7.785156 16.746094 7.230469 16.722656 6.839844 C 16.710938 6.628906 16.667969 6.425781 16.59375 6.234375 C 16.519531 6.054688 16.425781 5.886719 16.300781 5.742188 C 16.175781 5.601562 16.035156 5.480469 15.878906 5.394531 C 15.714844 5.300781 15.542969 5.246094 15.359375 5.226562 C 15.050781 5.195312 14.75 5.285156 14.507812 5.476562 C 14.265625 5.667969 14.09375 5.953125 13.996094 6.316406 C 13.832031 6.921875 13.859375 7.554688 14.066406 8.195312 C 14.234375 8.714844 14.535156 9.257812 14.949219 9.804688 C 14.90625 9.917969 14.859375 10.039062 14.808594 10.167969 C 14.398438 11.199219 13.984375 12.128906 13.84375 12.4375 C 13.660156 12.511719 13.46875 12.589844 13.28125 12.671875 C 12.535156 13 11.925781 13.316406 11.472656 13.609375 C 11.179688 13.800781 10.953125 13.976562 10.78125 14.15625 C 10.546875 14.394531 10.410156 14.628906 10.367188 14.871094 C 10.328125 15.078125 10.324219 15.484375 10.757812 15.835938 C 11.164062 16.171875 11.546875 16.273438 11.863281 16.273438 C 12.027344 16.273438 12.171875 16.246094 12.296875 16.207031 C 12.683594 16.089844 13.046875 15.820312 13.390625 15.402344 C 13.636719 15.105469 13.875 14.71875 14.101562 14.265625 C 14.304688 13.863281 14.457031 13.472656 14.558594 13.195312 C 15.378906 12.875 16.039062 12.660156 16.089844 12.640625 C 16.136719 12.628906 16.753906 12.441406 17.5 12.289062 C 17.734375 12.484375 17.9375 12.652344 18.09375 12.796875 C 18.484375 13.152344 18.933594 13.363281 19.394531 13.402344 C 19.445312 13.410156 19.496094 13.410156 19.546875 13.410156 C 19.917969 13.410156 20.273438 13.289062 20.527344 13.078125 C 20.726562 12.910156 20.855469 12.695312 20.898438 12.457031 C 20.945312 12.199219 20.886719 11.9375 20.730469 11.707031 C 20.589844 11.507812 20.386719 11.355469 20.117188 11.257812 Z M 13.210938 13.855469 C 13.019531 14.242188 12.820312 14.558594 12.621094 14.800781 C 12.40625 15.058594 12.195312 15.226562 12.007812 15.28125 C 11.882812 15.320312 11.683594 15.339844 11.378906 15.09375 C 11.351562 15.070312 11.339844 15.054688 11.332031 15.046875 C 11.339844 15.023438 11.367188 14.957031 11.464844 14.855469 C 11.578125 14.734375 11.75 14.597656 11.972656 14.449219 C 12.300781 14.226562 12.734375 13.992188 13.265625 13.746094 C 13.246094 13.789062 13.230469 13.824219 13.210938 13.855469 Z M 14.941406 6.570312 C 14.980469 6.425781 15.070312 6.195312 15.242188 6.195312 C 15.246094 6.195312 15.253906 6.195312 15.261719 6.195312 C 15.441406 6.210938 15.71875 6.445312 15.742188 6.890625 C 15.753906 7.105469 15.707031 7.597656 15.359375 8.667969 C 14.957031 7.996094 14.75 7.28125 14.941406 6.570312 Z M 15.789062 11.722656 L 15.785156 11.726562 C 15.761719 11.734375 15.511719 11.816406 15.132812 11.949219 C 15.292969 11.574219 15.484375 11.125 15.675781 10.648438 C 15.972656 10.957031 16.28125 11.242188 16.578125 11.511719 C 16.125 11.621094 15.8125 11.714844 15.789062 11.722656 Z M 19.929688 12.289062 C 19.929688 12.296875 19.917969 12.316406 19.886719 12.34375 C 19.742188 12.464844 19.285156 12.5625 18.773438 12.105469 C 18.984375 12.085938 19.179688 12.085938 19.34375 12.09375 C 19.742188 12.113281 19.886719 12.207031 19.90625 12.242188 C 19.925781 12.273438 19.929688 12.289062 19.929688 12.289062 Z M 19.929688 12.289062 " fill-opacity="1" fill-rule="nonzero"/></svg>